Beneath The Planet Of The Apes 1970 BluRay 1080p DTS x264-LoNeWoLf

Encoded by Tequila-Bob a.k.a. bobnjeff a.k.a.LoNeWoLf

Source - NTSC BluRay Disc.
 
http://www.imdb.com/title/tt0065462/

Genres:Action | Sci-Fi 

Rated: G 
Running Time: 1 hr. 48 min. 

In Theaters: May 26, 1970 Wide


The sole survivor of an interplanetary rescue mission searches for the only survivor of the previous expedition. He discovers a planet ruled by apes and an underground city run by telekinetic humans. 
Director: Ted Post
Writers: Pierre Boulle (characters), Paul Dehn (story),  
Stars:James Franciscus, Kim Hunter and Maurice Evans  

Cast
Cast overview, first billed only: 
  James Franciscus  ...  John Brent  
  Kim Hunter  ...  Zira  
  Maurice Evans  ...  Dr. Zaius  
  Linda Harrison  ...  Nova  
  Charlton Heston  ...  Colonel George Taylor  
  Paul Richards  ...  Mendez  
  Victor Buono  ...  Fat Man  
  James Gregory  ...  General Ursus  
  Jeff Corey  ...  Caspay  
  Natalie Trundy  ...  Albina  
  Thomas Gomez  ...  Minister  
  David Watson  ...  Cornelius  
  Don Pedro Colley  ...  Negro  
  Tod Andrews  ...  Skipper  
  Gregory Sierra  ...  Verger  

Astronaut Brent is sent to rescue Taylor but crash lands on the Planet of the Apes, just like Taylor did in the original film. Taylor has disappeared into the Forbidden Zone so Brent and Nova try to follow and find him. He discovers a cult of humans that fear the Apes' latest military movements and finds himself in the middle. Tension mounts to a climactic battle between ape and man deep in the bowels of the planet. Sequel to "Planet of the Apes." Film 

[img]http://torrent-stats.info/319b/33e08203.png[/img]

Format : Matroska 
File size : 8.00 GiB 
Duration : 1h 34mn 
Overall bit rate : 12.1 Mbps 
Encoded date : UTC 2010-11-25 13:44:01 
Writing application : mkvmerge v4.4.0 ('Die Wiederkehr') built on Oct 31 2010 21:52:48 
Writing library : libebml v1.0.0 + libmatroska v1.0.0 

Video 
ID : 1 
Format : AVC 
Format/Info : Advanced Video Codec 
Format profile : High@L4.1 
Format settings, CABAC : Yes 
Format settings, ReFrames : 7 frames 
Muxing mode : Container profile=Unknown@4.1 
Codec ID : V_MPEG4/ISO/AVC 
Duration : 1h 34mn 
Bit rate : 10.5 Mbps 
Width : 1 920 pixels 
Height : 816 pixels 
Display aspect ratio : 2.35:1 
Frame rate : 23.976 fps 
Color space : YUV 
Chroma subsampling : 4:2:0 
Bit depth : 8 bits 
Scan type : Progressive 
Bits/(Pixel*Frame) : 0.280 
Stream size : 6.84 GiB (86%) 
Writing library : x264 core 98 r1649 c54c47d 
Encoding settings : cabac=1 / ref=8 / deblock=1:0:0 / analyse=0x3:0x133 / me=umh / subme=7 / psy=1 / psy_rd=1.00:0.15 / mixed_ref=1 / me_range=24 / chroma_me=1 / trellis=1 / 8x8dct=1 / cqm=0 / deadzone=21,11 / fast_pskip=1 / chroma_qp_offset=-3 / threads=6 / sliced_threads=0 / nr=0 / decimate=1 / interlaced=0 / constrained_intra=0 / bframes=5 / b_pyramid=1 / b_adapt=1 / b_bias=0 / direct=1 / weightb=1 / weightp=2 / keyint=250 / keyint_min=25 / scenecut=40 / intra_refresh=0 / rc_lookahead=50 / rc=2pass / mbtree=1 / bitrate=10508 / ratetol=1.0 / qcomp=0.60 / qpmin=10 / qpmax=51 / qpstep=4 / cplxblur=20.0 / qblur=0.5 / ip_ratio=1.40 / aq=1:1.50 
Language : English 

Audio 
ID : 2 
Format : DTS 
Format/Info : Digital Theater Systems 
Codec ID : A_DTS 
Duration : 1h 34mn 
Bit rate mode : Constant 
Bit rate : 1 510 Kbps 
Channel(s) : 6 channels 
Channel positions : Front: L C R, Side: L R, LFE 
Sampling rate : 48.0 KHz 
Bit depth : 24 bits 
Video delay : 10ms 
Stream size : 1 023 MiB (12%) 
Title : 3/2+1 

Language : English 
Language : English 
Language : Spanish 
Language : Chinese 
Language : Chinese 
Language : Korean 
Language : Spanish 
Language : Spanish 
Language : French 
Language : French 

Menu Chapters 23

Click on link below to view 1920x816 PNG files


 
http://s1015.photobucket.com/albums/af279/tequila-bob/Beneath%20The%20Planet%20Of%20The%20Apes%201970/
